<?xml version="1.0" encoding="UTF-8" standalone="no"?>
<!DOCTYPE svg PUBLIC "-//W3C//DTD SVG 1.1//EN" "http://www.w3.org/Graphics/SVG/1.1/DTD/svg11.dtd">
<svg xmlns="http://www.w3.org/2000/svg" version="1.1" viewBox="0 0 1024 1024" width="1024.0pt" height="1024.0pt">
<path d="M 0.00 0.00 L 1024.00 0.00 L 1024.00 1024.00 L 0.00 1024.00 L 0.00 0.00 Z" fill="#ffffff" />
<path d="M 502.70 188.12 C 511.42 215.84 520.50 243.46 529.67 271.03 C 536.39 264.26 543.53 257.98 550.69 251.71 C 566.98 237.66 583.30 223.60 599.41 209.35 C 601.14 207.76 602.93 206.38 604.90 205.10 C 604.55 209.97 603.56 214.70 602.77 219.50 C 598.53 245.47 594.73 271.50 590.43 297.46 C 593.69 300.56 597.22 303.34 600.60 306.31 C 610.20 314.39 619.42 322.90 629.00 330.99 C 640.51 341.17 652.30 351.02 663.86 361.14 C 666.58 363.34 666.76 367.82 667.64 371.02 C 669.90 380.17 672.19 389.31 674.30 398.50 C 675.02 401.26 675.58 404.36 677.02 406.86 C 678.59 408.90 681.36 410.11 683.52 411.45 C 700.30 421.38 717.29 430.97 734.04 440.95 C 755.45 453.55 777.07 465.73 798.21 478.78 C 799.44 479.69 801.35 480.61 801.95 482.08 C 801.85 483.73 801.38 485.28 800.78 486.81 C 795.25 499.98 787.43 511.52 778.81 522.83 C 776.74 525.46 774.84 528.19 772.96 530.96 C 770.55 534.62 766.53 536.46 762.99 539.00 C 754.83 544.45 747.03 550.37 739.05 556.08 C 733.62 559.71 729.01 563.48 722.00 562.41 C 699.63 559.92 677.39 556.32 654.98 554.16 C 639.66 552.09 623.14 556.00 611.75 566.82 C 605.92 572.46 601.64 579.96 599.87 587.87 C 599.12 591.42 600.19 594.51 601.34 597.80 C 607.03 613.23 613.21 628.47 619.11 643.83 C 624.26 657.48 629.99 671.00 634.61 684.85 C 621.72 676.84 609.12 668.40 596.08 660.61 C 596.41 662.02 596.73 663.42 597.19 664.79 C 600.64 674.43 604.19 684.18 606.45 694.18 C 607.53 698.78 607.87 703.30 607.51 708.01 C 605.43 729.90 600.35 751.29 593.24 772.07 C 592.65 773.71 591.95 775.30 591.22 776.89 C 586.77 764.23 581.26 751.90 576.11 739.51 C 564.69 759.44 552.13 778.70 540.45 798.45 C 532.61 811.18 525.12 824.15 517.04 836.73 C 509.84 825.39 502.17 814.36 494.89 803.07 C 480.11 781.47 466.06 759.36 451.23 737.78 C 448.24 733.54 445.46 729.14 442.70 724.75 C 439.05 740.44 434.32 755.87 430.29 771.46 C 414.89 748.47 400.70 724.57 386.07 701.09 C 379.01 688.93 371.28 677.20 364.10 665.11 C 362.75 671.22 360.04 677.09 358.00 683.05 C 355.16 690.35 352.33 697.66 349.57 705.00 C 348.93 704.09 348.29 703.20 347.74 702.24 C 334.22 674.92 321.31 647.36 308.09 619.90 C 304.63 612.22 296.10 607.42 288.48 604.76 C 274.87 600.15 260.80 603.25 247.01 605.22 C 238.79 606.30 230.76 608.45 222.58 609.72 C 225.27 606.01 228.00 602.34 230.46 598.47 C 244.81 577.40 258.68 556.04 272.81 534.82 C 280.29 523.41 288.09 512.18 295.32 500.61 C 289.72 501.24 284.10 501.62 278.49 502.23 C 268.64 503.12 258.89 505.19 249.03 505.90 C 268.53 484.12 287.76 462.04 307.23 440.23 C 318.28 427.52 329.74 415.14 340.62 402.28 C 329.39 401.97 318.17 402.28 306.95 402.32 C 310.64 398.54 315.14 395.63 319.14 392.16 C 330.09 383.02 341.60 374.62 352.77 365.76 C 362.57 358.22 372.25 350.55 382.23 343.24 C 384.12 341.70 386.81 340.06 387.61 337.66 C 394.52 318.91 400.63 299.90 407.25 281.04 C 408.97 275.07 415.20 270.74 419.44 266.40 C 431.46 254.42 443.79 242.79 455.96 230.97 C 464.90 221.89 474.43 213.43 483.50 204.49 C 488.43 199.75 493.67 195.34 498.51 190.51 C 499.88 189.33 500.65 187.90 502.70 188.12 Z" fill="#000000" />
<path d="M 491.78 229.90 C 493.93 235.91 495.59 242.10 497.49 248.20 C 502.17 263.79 507.34 279.30 511.42 295.06 C 506.78 303.50 501.82 311.74 497.14 320.16 C 495.19 323.81 491.36 326.57 488.32 329.37 C 478.13 338.20 468.22 347.40 457.91 356.10 C 457.71 349.70 456.60 343.44 455.92 337.10 C 454.52 323.04 452.86 309.02 451.67 294.94 C 457.69 284.30 464.35 274.05 470.50 263.49 C 476.08 254.66 481.28 245.61 487.00 236.89 C 488.60 234.43 489.71 232.00 491.78 229.90 Z" fill="#ffffff" />
<path d="M 624.18 398.66 C 626.49 401.49 628.51 404.47 630.40 407.60 C 633.55 412.78 637.19 417.57 640.84 422.40 C 633.23 421.16 625.61 420.04 618.02 418.72 C 614.13 418.04 611.14 416.43 608.33 413.68 C 603.84 409.28 599.30 404.94 594.84 400.51 C 599.67 399.39 604.54 399.43 609.44 398.93 C 614.36 398.58 619.24 398.30 624.18 398.66 Z" fill="#ffffff" />
</svg>